<svg width="50" height="58" viewBox="0 0 50 58" fill="none" xmlns="http://www.w3.org/2000/svg">
<path d="M44.6429 3.57144H5.35714C2.39955 3.57144 0 5.971 0 8.92858V48.2143C0 51.1719 2.39955 53.5714 5.35714 53.5714H44.6429C47.6004 53.5714 50 51.1719 50 48.2143V8.92858C50 5.971 47.6004 3.57144 44.6429 3.57144ZM30.9487 46.3951C30.0112 46.5625 29.6652 45.9822 29.6652 45.5022C29.6652 44.8996 29.6875 41.8192 29.6875 39.3304C29.6875 37.5893 29.1071 36.4844 28.4263 35.904C32.5558 35.4464 36.9085 34.8772 36.9085 27.7455C36.9085 25.7143 36.183 24.6987 35 23.3929C35.1897 22.913 35.8259 20.9375 34.8103 18.3705C33.2589 17.8906 29.7098 20.3683 29.7098 20.3683C28.2366 19.9554 26.6406 19.7433 25.067 19.7433C23.4933 19.7433 21.8973 19.9554 20.4241 20.3683C20.4241 20.3683 16.875 17.8906 15.3237 18.3705C14.308 20.9264 14.933 22.9018 15.1339 23.3929C13.9509 24.6987 13.3929 25.7143 13.3929 27.7455C13.3929 34.8438 17.5558 35.4464 21.6853 35.904C21.1496 36.3839 20.6696 37.2098 20.5022 38.3929C19.442 38.8728 16.7299 39.6987 15.1116 36.8415C14.096 35.0781 12.2656 34.933 12.2656 34.933C10.4576 34.9107 12.1429 36.0714 12.1429 36.0714C13.3482 36.6295 14.1964 38.7723 14.1964 38.7723C15.279 42.0871 20.4576 40.971 20.4576 40.971C20.4576 42.5223 20.4799 45.0447 20.4799 45.5022C20.4799 45.9822 20.1451 46.5625 19.1964 46.3951C11.8304 43.9286 6.67411 36.9197 6.67411 28.7277C6.67411 18.4822 14.5089 10.7031 24.7545 10.7031C35 10.7031 43.3036 18.4822 43.3036 28.7277C43.3147 36.9197 38.3147 43.9397 30.9487 46.3951ZM20 39.5759C19.7879 39.6205 19.5871 39.5313 19.5647 39.3862C19.5424 39.2188 19.6875 39.0737 19.8996 39.029C20.1116 39.0067 20.3125 39.096 20.3348 39.2411C20.3683 39.3862 20.2232 39.5313 20 39.5759ZM18.9397 39.4755C18.9397 39.6205 18.7723 39.7433 18.5491 39.7433C18.3036 39.7656 18.1362 39.6429 18.1362 39.4755C18.1362 39.3304 18.3036 39.2076 18.5268 39.2076C18.7388 39.1853 18.9397 39.308 18.9397 39.4755ZM17.4107 39.3527C17.3661 39.4978 17.1429 39.5647 16.9531 39.4978C16.7411 39.4531 16.596 39.2857 16.6406 39.1406C16.6853 38.9955 16.9085 38.9286 17.0982 38.9732C17.3214 39.0402 17.4665 39.2076 17.4107 39.3527ZM16.0379 38.75C15.9375 38.8728 15.7254 38.8505 15.558 38.683C15.3906 38.538 15.346 38.3259 15.4576 38.2255C15.558 38.1027 15.7701 38.125 15.9375 38.2924C16.0826 38.4375 16.1384 38.6607 16.0379 38.75ZM15.0223 37.7344C14.9219 37.8014 14.7321 37.7344 14.6094 37.567C14.4866 37.3996 14.4866 37.2098 14.6094 37.1317C14.7321 37.0313 14.9219 37.1094 15.0223 37.2768C15.1451 37.4442 15.1451 37.6451 15.0223 37.7344V37.7344ZM14.2969 36.6518C14.1964 36.7522 14.029 36.6964 13.9062 36.5848C13.7835 36.4397 13.7612 36.2723 13.8616 36.1942C13.9621 36.0938 14.1295 36.1496 14.2522 36.2612C14.375 36.4063 14.3973 36.5737 14.2969 36.6518ZM13.5491 35.8259C13.5045 35.9263 13.3594 35.9487 13.2366 35.8705C13.0915 35.8036 13.0246 35.6808 13.0692 35.5804C13.1138 35.5134 13.2366 35.4799 13.3817 35.5357C13.5268 35.6138 13.5938 35.7366 13.5491 35.8259Z" fill="white"/>
</svg>
