<svg width="50" height="58" viewBox="0 0 50 58" fill="none" xmlns="http://www.w3.org/2000/svg">
<g clip-path="url(#clip0_504_13)">
<path d="M25 22.6183C23.8227 22.6187 22.6719 22.9682 21.6932 23.6226C20.7145 24.277 19.9519 25.2069 19.5016 26.2948C19.0514 27.3826 18.9338 28.5795 19.1638 29.7342C19.3937 30.8888 19.9609 31.9493 20.7935 32.7817C21.6262 33.614 22.6869 34.1808 23.8417 34.4103C24.9964 34.6398 26.1932 34.5218 27.2809 34.0711C28.3686 33.6205 29.2982 32.8575 29.9522 31.8785C30.6063 30.8996 30.9554 29.7487 30.9554 28.5714C30.9542 26.9925 30.3263 25.4787 29.2096 24.3624C28.093 23.2462 26.5789 22.6189 25 22.6183ZM38.9185 18.0424C38.6155 17.2744 38.1578 16.5768 37.574 15.9929C36.9902 15.4091 36.2926 14.9515 35.5246 14.6484C33.1808 13.7232 27.6004 13.9308 25 13.9308C22.3996 13.9308 16.8248 13.7154 14.4743 14.6484C13.7063 14.9515 13.0087 15.4091 12.4249 15.9929C11.8411 16.5768 11.3834 17.2744 11.0804 18.0424C10.1562 20.3861 10.3627 25.9721 10.3627 28.5703C10.3627 31.1685 10.1562 36.7477 11.0848 39.0993C11.3879 39.8673 11.8455 40.5649 12.4294 41.1487C13.0132 41.7326 13.7108 42.1902 14.4788 42.4933C16.8225 43.4185 22.4029 43.2109 25.0045 43.2109C27.606 43.2109 33.1786 43.4263 35.529 42.4933C36.2971 42.1902 36.9946 41.7326 37.5785 41.1487C38.1623 40.5649 38.6199 39.8673 38.923 39.0993C39.8549 36.7555 39.6406 31.1696 39.6406 28.5714C39.6406 25.9732 39.8549 20.3951 38.923 18.0435L38.9185 18.0424ZM25 37.7232C23.1899 37.7232 21.4205 37.1864 19.9155 36.1808C18.4105 35.1752 17.2375 33.7459 16.5449 32.0736C15.8522 30.4014 15.6709 28.5612 16.0241 26.786C16.3772 25.0107 17.2488 23.38 18.5287 22.1001C19.8086 20.8202 21.4393 19.9486 23.2146 19.5955C24.9898 19.2423 26.83 19.4236 28.5022 20.1163C30.1745 20.8089 31.6038 21.9819 32.6094 23.4869C33.615 24.9919 34.1518 26.7613 34.1518 28.5714C34.1533 29.7736 33.9175 30.9644 33.4581 32.0754C32.9987 33.1864 32.3247 34.1958 31.4746 35.046C30.6245 35.8961 29.615 36.5701 28.504 37.0295C27.393 37.4889 26.2022 37.7246 25 37.7232ZM34.529 21.1718C34.1065 21.1721 33.6934 21.047 33.3419 20.8124C32.9905 20.5778 32.7165 20.2442 32.5547 19.8539C32.3928 19.4636 32.3504 19.0341 32.4327 18.6196C32.5149 18.2052 32.7183 17.8244 33.017 17.5256C33.3157 17.2267 33.6963 17.0232 34.1107 16.9407C34.5252 16.8581 34.9547 16.9004 35.3451 17.062C35.7355 17.2237 36.0692 17.4975 36.304 17.8488C36.5387 18.2001 36.6641 18.6131 36.6641 19.0357C36.6652 19.3163 36.611 19.5943 36.5045 19.8539C36.3979 20.1135 36.2412 20.3495 36.0433 20.5484C35.8453 20.7473 35.6101 20.9051 35.351 21.0129C35.0919 21.1206 34.8141 21.1762 34.5335 21.1763L34.529 21.1718ZM44.6429 3.57141H5.35714C3.93634 3.57141 2.57373 4.13582 1.56907 5.14048C0.564412 6.14514 0 7.50775 0 8.92855L0 48.2142C0 49.635 0.564412 50.9976 1.56907 52.0023C2.57373 53.007 3.93634 53.5714 5.35714 53.5714H44.6429C46.0637 53.5714 47.4263 53.007 48.4309 52.0023C49.4356 50.9976 50 49.635 50 48.2142V8.92855C50 7.50775 49.4356 6.14514 48.4309 5.14048C47.4263 4.13582 46.0637 3.57141 44.6429 3.57141ZM42.7321 35.9375C42.5882 38.7979 41.9353 41.3325 39.8471 43.4151C37.7589 45.4977 35.2266 46.164 32.3694 46.3002C29.4219 46.4665 20.5848 46.4665 17.6373 46.3002C14.7768 46.1562 12.2511 45.5022 10.1596 43.4151C8.06808 41.3281 7.41071 38.7924 7.27455 35.9375C7.10826 32.9888 7.10826 24.1506 7.27455 21.2053C7.41853 18.3448 8.06362 15.8102 10.1596 13.7277C12.2556 11.6451 14.7879 10.9866 17.6373 10.8504C20.5848 10.6841 29.4219 10.6841 32.3694 10.8504C35.2299 10.9944 37.7634 11.6484 39.8471 13.7355C41.9308 15.8225 42.596 18.3582 42.7321 21.2187C42.8984 24.1562 42.8984 32.9866 42.7321 35.9375Z" fill="white"/>
</g>
<defs>
<clipPath id="clip0_504_13">
<rect width="50" height="57.1428" fill="white"/>
</clipPath>
</defs>
</svg>
