<svg width="50" height="58" viewBox="0 0 50 58" fill="none" xmlns="http://www.w3.org/2000/svg">
<path d="M46.4286 3.57144H3.56027C1.59598 3.57144 0 5.18975 0 7.17635V49.9665C0 51.9531 1.59598 53.5714 3.56027 53.5714H46.4286C48.3929 53.5714 50 51.9531 50 49.9665V7.17635C50 5.18975 48.3929 3.57144 46.4286 3.57144ZM15.1116 46.4286H7.70089V22.567H15.1228V46.4286H15.1116ZM11.4062 19.308C9.02902 19.308 7.10938 17.3772 7.10938 15.0112C7.10938 12.6451 9.02902 10.7143 11.4062 10.7143C13.7723 10.7143 15.7031 12.6451 15.7031 15.0112C15.7031 17.3884 13.7835 19.308 11.4062 19.308V19.308ZM42.8906 46.4286H35.4799V34.8214C35.4799 32.0536 35.4241 28.4933 31.6295 28.4933C27.7679 28.4933 27.1763 31.5067 27.1763 34.6205V46.4286H19.7656V22.567H26.875V25.8259H26.9754C27.9687 23.9509 30.3906 21.9755 33.9955 21.9755C41.4955 21.9755 42.8906 26.9197 42.8906 33.3482V46.4286V46.4286Z" fill="white"/>
</svg>
