<svg width="50" height="58" viewBox="0 0 50 58" fill="none" xmlns="http://www.w3.org/2000/svg">
<path d="M44.6429 3.57141H5.35714C2.39955 3.57141 0 5.97096 0 8.92855V48.2143C0 51.1719 2.39955 53.5714 5.35714 53.5714H44.6429C47.6004 53.5714 50 51.1719 50 48.2143V8.92855C50 5.97096 47.6004 3.57141 44.6429 3.57141ZM39.1853 21.2946C39.2076 21.6071 39.2076 21.9308 39.2076 22.2433C39.2076 31.9196 31.8415 43.0692 18.3817 43.0692C14.2299 43.0692 10.3795 41.8638 7.14286 39.7879C7.73438 39.8549 8.30357 39.8772 8.90625 39.8772C12.3326 39.8772 15.4799 38.7165 17.9911 36.7522C14.7768 36.6852 12.0759 34.5759 11.1496 31.6741C12.2768 31.8415 13.2924 31.8415 14.4531 31.5402C11.1049 30.8594 8.59375 27.9129 8.59375 24.3527V24.2634C9.56473 24.8102 10.7031 25.1451 11.8973 25.1897C10.8933 24.5219 10.0703 23.6159 9.50164 22.5526C8.93299 21.4893 8.63642 20.3018 8.63839 19.096C8.63839 17.7344 8.99554 16.4844 9.6317 15.4018C13.2366 19.8437 18.6496 22.7455 24.721 23.058C23.683 18.0915 27.3996 14.0625 31.8638 14.0625C33.9732 14.0625 35.8705 14.9442 37.2098 16.3727C38.8616 16.0602 40.4464 15.4464 41.8527 14.6094C41.3058 16.3058 40.1562 17.7344 38.6384 18.6384C40.1116 18.4821 41.5402 18.0692 42.8571 17.5C41.8638 18.962 40.6138 20.2567 39.1853 21.2946Z" fill="white"/>
</svg>
